<svg width="1354" height="411" viewBox="0 0 1354 411" fill="none" xmlns="http://www.w3.org/2000/svg">
<path d="M208.5 205L278 256.25V358.75L208.5 410L139 358.75V256.25L208.5 205Z" fill="#FBFBFB"/>
<path d="M477.5 206L547 257.25V359.75L477.5 411L408 359.75V257.25L477.5 206Z" fill="#1E1E1E"/>
<path d="M746.5 206L816 257.25V359.75L746.5 411L677 359.75V257.25L746.5 206Z" fill="#FBFBFB"/>
<path d="M1015.5 206L1085 257.25V359.75L1015.5 411L946 359.75V257.25L1015.5 206Z" fill="#1E1E1E"/>
<path d="M1284.5 206L1354 257.25V359.75L1284.5 411L1215 359.75V257.25L1284.5 206Z" fill="#FBFBFB"/>
<path d="M69.5 0L139 51.25V153.75L69.5 205L-6.37783e-06 153.75V51.25L69.5 0Z" fill="#1E1E1E"/>
<path d="M338.5 1L408 52.25V154.75L338.5 206L269 154.75V52.25L338.5 1Z" fill="#FBFBFB"/>
<path d="M607.5 1L677 52.25V154.75L607.5 206L538 154.75V52.25L607.5 1Z" fill="#1E1E1E"/>
<path d="M876.5 1L946 52.25V154.75L876.5 206L807 154.75V52.25L876.5 1Z" fill="#FBFBFB"/>
<path d="M1145.5 1L1215 52.25V154.75L1145.5 206L1076 154.75V52.25L1145.5 1Z" fill="#1E1E1E"/>
</svg>
