<svg width="181" height="203" viewBox="0 0 181 203" fill="none" xmlns="http://www.w3.org/2000/svg">
<g filter="url(#filter0_d_4_18)">
<rect x="4" width="115.318" height="195" rx="57.6588" fill="white"/>
<rect x="6.5" y="2.5" width="110.318" height="190" rx="55.1588" stroke="black" stroke-width="5" stroke-miterlimit="1.30541"/>
</g>
<g filter="url(#filter1_d_4_18)">
<rect x="48.9289" y="43.3333" width="26.2085" height="57.5521" rx="13.1043" fill="white"/>
<rect x="51.4289" y="45.8333" width="21.2085" height="52.5521" rx="10.6043" stroke="black" stroke-width="5" stroke-miterlimit="1.30541"/>
</g>
<path d="M160.232 143.278C161.209 144.254 162.791 144.254 163.768 143.278L179.678 127.368C180.654 126.392 180.654 124.809 179.678 123.833C178.701 122.856 177.118 122.856 176.142 123.833L162 137.975L147.858 123.833C146.882 122.856 145.299 122.856 144.322 123.833C143.346 124.809 143.346 126.392 144.322 127.368L160.232 143.278ZM159.5 60.2604V141.51H164.5V60.2604H159.5Z" fill="black"/>
<defs>
<filter id="filter0_d_4_18" x="0" y="0" width="123.318" height="203" filterUnits="userSpaceOnUse" color-interpolation-filters="sRGB">
<feFlood flood-opacity="0" result="BackgroundImageFix"/>
<feColorMatrix in="SourceAlpha" type="matrix" values="0 0 0 0 0 0 0 0 0 0 0 0 0 0 0 0 0 0 127 0" result="hardAlpha"/>
<feOffset dy="4"/>
<feGaussianBlur stdDeviation="2"/>
<feComposite in2="hardAlpha" operator="out"/>
<feColorMatrix type="matrix" values="0 0 0 0 0 0 0 0 0 0 0 0 0 0 0 0 0 0 0.25 0"/>
<feBlend mode="normal" in2="BackgroundImageFix" result="effect1_dropShadow_4_18"/>
<feBlend mode="normal" in="SourceGraphic" in2="effect1_dropShadow_4_18" result="shape"/>
</filter>
<filter id="filter1_d_4_18" x="44.9289" y="43.3333" width="34.2085" height="65.5521" filterUnits="userSpaceOnUse" color-interpolation-filters="sRGB">
<feFlood flood-opacity="0" result="BackgroundImageFix"/>
<feColorMatrix in="SourceAlpha" type="matrix" values="0 0 0 0 0 0 0 0 0 0 0 0 0 0 0 0 0 0 127 0" result="hardAlpha"/>
<feOffset dy="4"/>
<feGaussianBlur stdDeviation="2"/>
<feComposite in2="hardAlpha" operator="out"/>
<feColorMatrix type="matrix" values="0 0 0 0 0 0 0 0 0 0 0 0 0 0 0 0 0 0 0.25 0"/>
<feBlend mode="normal" in2="BackgroundImageFix" result="effect1_dropShadow_4_18"/>
<feBlend mode="normal" in="SourceGraphic" in2="effect1_dropShadow_4_18" result="shape"/>
</filter>
</defs>
</svg>
